<svg preserveAspectRatio="none" overflow="visible" style="display: block;" width="24" height="24" viewBox="0 0 24 24" fill="none" xmlns="http://www.w3.org/2000/svg">
<g id="Frame">
<path id="Vector" d="M18.3653 4.22277C18.7558 3.83225 19.389 3.83225 19.7795 4.22277C21.769 6.21228 23.0013 8.96366 23.0013 12.001C23.0013 15.0382 21.769 17.7896 19.7795 19.7791C19.389 20.1697 18.7558 20.1697 18.3653 19.7791C17.9748 19.3886 17.9748 18.7554 18.3653 18.3649C19.9951 16.7351 21.0013 14.4865 21.0013 12.001C21.0013 9.51539 19.9951 7.26676 18.3653 5.63698C17.9748 5.24646 17.9748 4.6133 18.3653 4.22277Z" fill="#8D8D8D"/>
<path id="Vector_2" d="M16.5977 7.40441C16.2072 7.01389 15.574 7.01389 15.1835 7.40441C14.793 7.79494 14.793 8.4281 15.1835 8.81862C15.999 9.63406 16.5015 10.7577 16.5015 12.0006C16.5015 13.2435 15.999 14.3672 15.1835 15.1826C14.793 15.5731 14.793 16.2063 15.1835 16.5968C15.574 16.9873 16.2072 16.9873 16.5977 16.5968C17.7729 15.4216 18.5015 13.7953 18.5015 12.0006C18.5015 10.206 17.7729 8.57959 16.5977 7.40441Z" fill="#8D8D8D"/>
<path id="Vector_3" d="M13 4.49882C13 3.26275 11.5889 2.55718 10.6 3.29882L5.93333 6.79882C5.76024 6.92864 5.5497 6.99882 5.33333 6.99882H4C2.34315 6.99882 1 8.34196 1 9.99881V13.9988C1 15.6557 2.34315 16.9988 4 16.9988H5.33333C5.5497 16.9988 5.76024 17.069 5.93333 17.1988L10.6 20.6988C11.5889 21.4404 13 20.7349 13 19.4988V4.49882Z" fill="#8D8D8D"/>
<path id="Vector_4" d="M19.7785 4.22258C19.3879 3.83206 18.7548 3.83206 18.3642 4.22258C17.9737 4.6131 17.9737 5.24627 18.3642 5.63679C19.994 7.26657 21.0003 9.5152 21.0003 12.0008C21.0003 14.4863 19.994 16.735 18.3642 18.3647C17.9737 18.7552 17.9737 19.3884 18.3642 19.7789C18.7548 20.1695 19.3879 20.1695 19.7785 19.7789C21.768 17.7894 23.0003 15.0381 23.0003 12.0008C23.0003 8.96347 21.768 6.2121 19.7785 4.22258Z" fill="#8D8D8D"/>
<path id="Vector_5" d="M16.5967 7.40423C16.2062 7.0137 15.573 7.0137 15.1825 7.40423C14.792 7.79475 14.792 8.42792 15.1825 8.81844C15.9979 9.63388 16.5005 10.7575 16.5005 12.0004C16.5005 13.2433 15.9979 14.367 15.1825 15.1824C14.792 15.5729 14.792 16.2061 15.1825 16.5966C15.573 16.9871 16.2062 16.9871 16.5967 16.5966C17.7719 15.4214 18.5005 13.7951 18.5005 12.0004C18.5005 10.2058 17.7719 8.5794 16.5967 7.40423Z" fill="#8D8D8D"/>
</g>
</svg>
